<?xml version="1.0" standalone="no"?>
<!DOCTYPE svg PUBLIC "-//W3C//DTD SVG 20010904//EN"
 "http://www.w3.org/TR/2001/REC-SVG-20010904/DTD/svg10.dtd">
<svg version="1.0" xmlns="http://www.w3.org/2000/svg"
 width="512.000000pt" height="512.000000pt" viewBox="0 0 512.000000 512.000000"
 preserveAspectRatio="xMidYMid meet">

<g transform="translate(0.000000,512.000000) scale(0.100000,-0.100000)"
fill="#000000" stroke="none">
<path d="M2385 4830 c-431 -44 -873 -224 -1210 -495 -97 -77 -274 -254 -348
-348 -262 -331 -429 -722 -482 -1132 -20 -156 -20 -434 0 -590 53 -410 220
-801 482 -1132 74 -94 252 -271 348 -348 269 -216 600 -374 935 -449 184 -40
282 -50 495 -50 284 0 477 31 740 121 830 283 1429 1036 1524 1915 14 123 14
368 1 478 -62 524 -272 973 -627 1341 -351 363 -803 597 -1303 674 -127 19
-431 27 -555 15z m525 -116 c613 -87 1164 -436 1511 -959 87 -130 200 -363
248 -510 182 -559 136 -1163 -130 -1680 -214 -417 -553 -749 -974 -956 -313
-153 -602 -221 -950 -222 -273 0 -479 33 -729 120 -676 234 -1210 810 -1385
1493 -47 185 -62 294 -68 487 -10 320 36 595 148 874 372 936 1333 1493 2329
1353z"/>
<path d="M2330 4625 c-603 -87 -1127 -414 -1458 -911 -551 -825 -443 -1919
259 -2623 329 -329 746 -535 1209 -597 139 -18 381 -18 527 1 887 116 1601
782 1778 1658 123 612 -40 1258 -437 1732 -328 392 -753 638 -1263 730 -124
23 -487 29 -615 10z m537 -714 c376 -77 682 -285 894 -609 156 -239 226 -496
216 -792 -10 -269 -78 -486 -220 -702 -381 -581 -1129 -789 -1754 -488 -393
190 -685 579 -757 1009 -21 122 -21 340 0 462 57 339 255 663 533 872 185 139
432 238 661 267 108 13 312 4 427 -19z"/>
<path d="M1967 3344 c-135 -41 -203 -207 -141 -341 10 -22 104 -125 221 -243
l203 -206 -201 -199 c-110 -110 -210 -218 -222 -240 -30 -56 -30 -164 0 -221
44 -83 129 -134 223 -134 97 0 110 9 340 237 l216 213 199 -201 c110 -110 218
-210 240 -222 31 -17 57 -22 116 -22 67 0 81 3 124 30 99 61 142 171 110 281
-16 56 -26 68 -228 272 l-211 212 211 213 c202 203 212 215 228 271 45 155
-60 304 -221 314 -109 7 -124 -3 -359 -238 l-209 -210 -211 209 c-194 193
-214 210 -264 225 -66 19 -101 19 -164 0z"/>
<path d="M342 1178 c-7 -7 -12 -24 -12 -38 0 -22 -6 -28 -37 -36 -70 -18 -70
-70 0 -88 31 -8 37 -14 37 -36 0 -32 17 -50 47 -50 24 0 43 26 43 58 0 13 11
21 38 28 34 8 37 12 37 44 0 32 -3 36 -37 44 -30 8 -38 14 -38 32 0 43 -50 70
-78 42z"/>
</g>
</svg>
