<?xml version="1.0" standalone="no"?>
<!DOCTYPE svg PUBLIC "-//W3C//DTD SVG 20010904//EN"
 "http://www.w3.org/TR/2001/REC-SVG-20010904/DTD/svg10.dtd">
<svg version="1.0" xmlns="http://www.w3.org/2000/svg"
 width="512.000000pt" height="512.000000pt" viewBox="0 0 512.000000 512.000000"
 preserveAspectRatio="xMidYMid meet">

<g transform="translate(0.000000,512.000000) scale(0.100000,-0.100000)"
fill="#000000" stroke="none">
<path d="M2029 4941 c-24 -19 -24 -21 -29 -281 l-5 -262 -100 -38 c-55 -20
-124 -49 -154 -64 l-54 -28 -186 186 c-170 169 -190 186 -221 186 -32 0 -63
-28 -417 -383 -355 -354 -383 -385 -383 -417 0 -31 17 -51 186 -221 l186 -186
-28 -54 c-15 -30 -44 -99 -64 -154 l-38 -100 -262 -5 c-260 -5 -262 -5 -281
-29 -18 -22 -19 -46 -19 -531 0 -485 1 -509 19 -531 19 -24 21 -24 281 -29
l262 -5 38 -100 c20 -55 49 -124 64 -154 l28 -54 -186 -186 c-169 -170 -186
-190 -186 -221 0 -32 28 -63 383 -417 354 -355 385 -383 417 -383 31 0 51 17
221 186 l186 186 54 -28 c30 -15 99 -44 154 -64 l100 -38 5 -262 c5 -260 5
-262 29 -281 22 -18 46 -19 531 -19 485 0 509 1 531 19 24 19 24 21 29 281 l5
261 100 38 c55 21 124 50 154 65 l54 28 186 -186 c170 -169 190 -186 221 -186
32 0 63 28 417 383 355 354 383 385 383 417 0 31 -17 51 -186 221 l-186 186
28 54 c15 30 44 99 64 154 l38 100 262 5 c260 5 262 5 281 29 18 22 19 46 19
531 0 485 -1 509 -19 531 -19 24 -21 24 -281 29 l-262 5 -38 100 c-20 55 -49
124 -64 154 l-28 54 186 186 c169 170 186 190 186 221 0 32 -28 63 -383 417
-354 355 -385 383 -417 383 -31 0 -51 -17 -221 -186 l-186 -186 -54 28 c-30
15 -99 44 -154 65 l-100 38 -5 261 c-5 260 -5 262 -29 281 -22 18 -46 19 -531
19 -485 0 -509 -1 -531 -19z m931 -389 c0 -184 3 -253 13 -265 7 -10 69 -37
138 -61 70 -24 168 -64 219 -90 51 -25 107 -46 124 -46 27 0 55 24 208 177
l178 178 302 -303 303 -302 -178 -178 c-162 -162 -177 -180 -177 -212 0 -19
10 -51 22 -70 30 -49 103 -226 128 -310 34 -115 19 -110 310 -110 l250 0 0
-400 0 -400 -250 0 c-291 0 -276 5 -310 -110 -25 -84 -98 -261 -128 -310 -12
-19 -22 -51 -22 -70 0 -32 15 -50 177 -212 l178 -178 -303 -302 -302 -303
-178 178 c-153 153 -181 177 -208 177 -17 0 -73 -21 -124 -46 -51 -26 -149
-66 -219 -90 -69 -24 -131 -51 -138 -61 -10 -12 -13 -81 -13 -265 l0 -248
-400 0 -400 0 0 250 c0 288 4 277 -97 306 -76 21 -244 90 -310 126 -94 52 -94
51 -295 -149 l-178 -178 -302 303 -303 302 178 178 c162 162 177 180 177 212
0 19 -10 51 -22 70 -30 49 -103 226 -128 310 -34 115 -19 110 -310 110 l-250
0 0 400 0 400 250 0 c291 0 276 -5 310 110 25 84 98 261 128 310 12 19 22 51
22 70 0 32 -15 50 -177 212 l-178 178 303 302 302 303 178 -178 c162 -162 180
-177 212 -177 19 0 51 10 70 22 49 30 226 103 310 128 115 34 110 19 110 310
l0 250 400 0 400 0 0 -248z"/>
<path d="M2365 4154 c-382 -57 -675 -202 -936 -463 -231 -232 -369 -483 -441
-808 -19 -85 -22 -128 -22 -323 0 -195 3 -238 22 -323 72 -325 210 -576 441
-808 229 -228 466 -360 786 -435 113 -27 133 -28 345 -28 212 0 232 1 345 28
321 75 556 206 786 435 229 230 360 465 435 786 27 113 28 133 28 345 0 194
-3 238 -22 323 -72 325 -210 576 -441 808 -231 230 -485 369 -803 440 -73 16
-137 21 -293 24 -110 2 -213 1 -230 -1z m422 -498 c395 -85 714 -372 836 -751
42 -132 51 -193 51 -345 0 -152 -9 -213 -51 -345 -124 -385 -445 -668 -858
-757 -78 -16 -332 -16 -410 0 -345 74 -623 280 -781 576 -136 256 -167 533
-93 823 30 117 125 302 211 407 165 204 422 356 668 396 41 6 82 13 90 15 35
9 271 -5 337 -19z"/>
<path d="M2751 3183 c-24 -21 -511 -1153 -511 -1189 0 -59 83 -95 129 -56 24
20 511 1152 511 1188 0 59 -83 95 -129 57z"/>
<path d="M1952 2744 c-186 -139 -201 -156 -188 -208 9 -35 360 -296 398 -296
58 0 100 78 66 123 -7 9 -65 55 -128 102 -63 48 -115 90 -115 95 0 5 52 47
115 95 63 47 121 93 128 102 20 27 14 72 -13 98 -45 46 -66 37 -263 -111z"/>
<path d="M2905 2855 c-27 -26 -33 -71 -12 -98 6 -9 64 -55 127 -102 63 -48
115 -90 115 -95 0 -5 -52 -47 -115 -95 -63 -47 -121 -93 -127 -102 -35 -45 7
-123 65 -123 38 0 389 261 398 296 13 52 -2 69 -188 208 -197 148 -218 157
-263 111z"/>
</g>
</svg>
