<?xml version="1.0" standalone="no"?>
<!DOCTYPE svg PUBLIC "-//W3C//DTD SVG 20010904//EN"
 "http://www.w3.org/TR/2001/REC-SVG-20010904/DTD/svg10.dtd">
<svg version="1.0" xmlns="http://www.w3.org/2000/svg"
 width="512.000000pt" height="512.000000pt" viewBox="0 0 512.000000 512.000000"
 preserveAspectRatio="xMidYMid meet">

<g transform="translate(0.000000,512.000000) scale(0.100000,-0.100000)"
fill="#000000" stroke="none">
<path d="M2377 4220 c-917 -71 -1685 -593 -2077 -1412 -33 -69 -67 -153 -75
-187 -15 -56 -15 -67 0 -123 36 -145 230 -488 382 -678 604 -757 1627 -1091
2591 -845 598 152 1102 510 1444 1025 102 153 230 405 253 498 15 57 15 67 0
125 -22 88 -149 341 -242 482 -112 169 -188 261 -332 405 -333 331 -736 551
-1201 654 -229 51 -524 73 -743 56z m363 -691 c350 -64 649 -328 758 -669 34
-106 45 -178 45 -300 0 -63 -6 -142 -12 -175 -81 -409 -387 -715 -796 -796
-77 -15 -273 -15 -350 0 -408 81 -713 386 -796 796 -6 33 -12 112 -12 175 0
63 6 142 12 175 90 447 445 767 896 809 55 5 189 -3 255 -15z"/>
<path d="M2455 3120 c-210 -45 -367 -185 -437 -390 -30 -86 -32 -248 -4 -330
64 -190 195 -322 386 -386 86 -29 254 -25 342 8 182 69 298 187 360 368 32 92
32 248 0 340 -81 237 -276 385 -517 395 -49 2 -108 0 -130 -5z"/>
</g>
</svg>
